<svg width="172" height="173" viewBox="0 0 172 173" fill="none" xmlns="http://www.w3.org/2000/svg">
<path d="M10.1465 6.47035C31.9827 -2.85766 49.7954 -1.11516 63.3135 5.47426C74.7353 11.0419 82.7256 19.8875 87.4746 27.5944C92.2391 24.6294 98.1795 21.6686 104.819 19.5748C114.99 16.3677 127.15 15.0872 139.27 19.3512C153.52 24.3653 165.464 33.2019 169.692 46.6286C173.938 60.1102 169.841 76.4144 156.137 95.0319C154.501 97.2533 151.11 105.363 151.11 117.568C151.11 134.24 146.335 147.598 140.128 156.78C137.035 161.356 133.524 164.984 129.972 167.443C126.544 169.816 122.512 171.477 118.559 171.038C114.546 170.592 111.293 168.056 108.891 165.502C106.391 162.845 104.163 159.473 102.254 156.084C98.4236 149.282 95.4365 141.598 93.8955 137.232C93.3997 135.827 92.8021 135.162 92.4316 134.874C92.0866 134.605 91.8093 134.553 91.5771 134.563C91.1143 134.583 89.7056 135.043 88.7529 137.424C87.4419 140.702 83.9244 151.427 78.9697 159.751C76.503 163.895 73.2843 168.167 69.1895 170.643C67.0589 171.931 64.5764 172.802 61.8145 172.793C59.0358 172.783 56.3622 171.883 53.8701 170.251C49.3803 167.309 45.7582 162.839 42.8496 158.07C39.9134 153.255 37.5168 147.822 35.6035 142.601C31.8886 132.464 29.8197 122.631 29.209 118.592C29.065 118.443 28.6652 118.071 27.7041 117.468C26.841 116.927 25.8381 116.382 24.5674 115.684C23.3526 115.017 21.9502 114.24 20.5479 113.346C17.7511 111.563 14.6285 109.116 12.4062 105.479C10.1199 101.737 9.03297 97.1432 9.63965 91.5309C10.247 85.9129 12.361 81.4688 15.585 78.234C18.7645 75.0439 22.7134 73.338 26.5332 72.5973C30.336 71.86 34.1894 72.0379 37.4932 72.7731C40.6554 73.4768 43.9498 74.8372 46.1455 77.0329C50.8829 81.7703 53.5603 87.9022 54.3896 90.5973C55.2017 93.2366 53.7203 96.0352 51.0811 96.8473C48.4418 97.6594 45.6432 96.1779 44.8311 93.5387C44.3269 91.9004 42.3376 87.3656 39.0752 84.1032C38.7708 83.7988 37.5651 83.0342 35.3213 82.5348C33.2191 82.067 30.7594 81.9636 28.4375 82.4137C26.1325 82.8606 24.1435 83.8111 22.667 85.2926C21.2348 86.7297 19.9737 88.9733 19.5811 92.6051C19.1878 96.2426 19.9134 98.5868 20.9395 100.266C22.0297 102.051 23.7198 103.51 25.9229 104.915C27.0204 105.614 28.165 106.252 29.3799 106.919C30.5386 107.555 31.8486 108.263 33.0166 108.996C34.988 110.232 38.2476 112.504 38.9961 116.471L39.0605 116.861L39.1621 117.529C39.7604 121.219 41.6561 130.056 44.9922 139.16C46.7663 144.001 48.9012 148.787 51.3867 152.863C53.8999 156.984 56.5905 160.077 59.3506 161.885C60.4834 162.628 61.2943 162.791 61.8496 162.793C62.4216 162.795 63.1228 162.626 64.0156 162.087C65.9676 160.906 68.1553 158.366 70.376 154.635C74.7963 147.209 77.7788 137.933 79.4678 133.711C81.5149 128.593 85.8561 124.803 91.1436 124.573C96.7461 124.329 101.286 128.127 103.325 133.904C104.784 138.038 107.547 145.104 110.967 151.177C112.683 154.225 114.454 156.822 116.174 158.65C117.989 160.58 119.175 161.044 119.662 161.098C120.208 161.159 121.801 160.936 124.28 159.22C126.634 157.591 129.311 154.925 131.843 151.179C136.886 143.719 141.11 132.328 141.11 117.568C141.11 103.974 144.805 93.5592 148.084 89.1041C160.879 71.7217 163.033 58.7758 160.153 49.6325C157.257 40.4342 148.7 33.2707 135.951 28.7848C126.47 25.449 116.63 26.3357 107.826 29.112C99.0045 31.8938 91.5747 36.4685 87.25 39.9586L84.5234 42.1598L81.5244 40.3473C50.4421 21.5613 24.0443 34.0675 12.4316 44.3825C20.1938 56.0653 32.2701 61.2979 45.1143 62.8932C59.1861 64.6409 73.6066 61.9038 82.4795 58.8414C85.0897 57.9408 87.936 59.327 88.8369 61.9372C89.7376 64.5474 88.3514 67.3937 85.7412 68.2946C75.7808 71.7322 59.8014 74.7942 43.8818 72.817C27.8542 70.8264 11.3271 63.611 1.71875 45.9586L0 42.8004L2.44629 40.1657C6.0936 36.2378 11.7545 31.7126 18.9766 28.0055C18.1613 27.1843 17.3414 26.3141 16.54 25.4215C13.1444 21.6394 9.63814 17.0093 7.71191 13.4459L5.10547 8.62367L10.1465 6.47035ZM121.11 53.568C124.976 53.568 128.11 56.702 128.11 60.568C128.11 64.434 124.976 67.568 121.11 67.568C117.244 67.568 114.11 64.434 114.11 60.568C114.11 56.702 117.244 53.568 121.11 53.568ZM58.9316 14.4625C49.2692 9.75268 36.3217 7.79319 19.6885 13.5026C20.9711 15.2213 22.4541 17.0408 23.9805 18.7409C25.5191 20.4546 26.997 21.9302 28.2305 22.984C28.6027 23.302 28.9298 23.5588 29.207 23.7633C41.4511 19.8237 56.5348 18.8629 73.1045 25.1286C69.3983 21.1059 64.6739 17.2616 58.9316 14.4625Z" fill="#E9784B"/>
</svg>
